<svg width="157" height="121" viewBox="0 0 157 121" fill="none" xmlns="http://www.w3.org/2000/svg">
<path d="M8.3604 110.145V112.989H12.6445V115.989C11.3203 117.059 10.1779 117.346 8.85371 117.346C4.67351 117.346 3.08971 114.476 3.08971 111.71C3.08971 108.24 5.27069 105.5 8.85371 105.5C10.3077 105.5 11.9954 106.1 13.1118 107.196L15.0851 105.187C13.3714 103.465 11.1126 102.604 8.85371 102.604C2.93393 102.604 0 106.987 0 111.736C0 116.172 2.57043 120.321 8.85371 120.321C11.8136 120.321 13.8907 119.199 15.5524 117.294V110.197H8.3604V110.145Z" fill="white"/>
<path d="M27.8851 103.048H24.4319L16.9023 119.903H20.3296L21.7576 116.72L23.0298 113.772L26.1455 106.596L29.2612 113.772L30.5334 116.72L31.9614 119.903H35.4147L27.8851 103.048Z" fill="white"/>
<path d="M51.2269 103.074L45.9822 110.327L40.7375 103.074H37.1025V119.929H40.2701V107.666L45.6187 115.024H46.2419L51.6943 107.692V119.929H54.8619V103.074H51.2269Z" fill="white"/>
<path d="M58.2646 103.048V106.126H70.8312V103.048H58.2646ZM61.4063 116.772V112.963H70.4937V109.988H58.2646V119.903H70.8312V116.772H61.4063Z" fill="white"/>
<path d="M83.5525 113.928C86.7461 113.276 87.8106 110.927 87.8106 108.631C87.8106 105.709 85.7335 103.074 81.761 103.047C79.0867 103.047 76.4384 103.021 73.79 103.021V119.903H76.9576V105.996H81.7869C83.7862 105.996 84.6689 107.353 84.6689 108.683C84.6689 110.04 83.8121 111.371 81.7869 111.371H77.7366L84.9026 119.877H88.6674V119.642L83.5525 113.928Z" fill="white"/>
<path d="M97.7813 109.597C95.7561 109.362 94.0425 108.944 94.0425 107.483C94.0425 106.231 95.1589 105.239 97.5216 105.239C99.3391 105.239 100.923 106.152 101.494 107.118L104.013 105.813C102.74 103.204 100.04 102.473 97.4178 102.473C94.3281 102.5 90.9268 103.909 90.9268 107.379C90.9268 111.162 94.0944 112.075 97.5216 112.493C99.7545 112.728 101.416 113.38 101.416 114.972C101.416 116.798 99.5468 117.503 97.5476 117.503C95.5224 117.503 93.5751 116.668 92.8222 114.815L90.1738 116.198C91.4201 119.277 94.0684 120.347 97.4957 120.347C101.234 120.347 104.532 118.729 104.532 114.972C104.532 110.953 101.286 110.04 97.7813 109.597Z" fill="white"/>
<path d="M115.176 103.048H107.802V119.903H109.1V114.085H115.176C122.471 114.085 122.471 103.048 115.176 103.048ZM115.176 112.884H109.1V104.248H115.176C120.784 104.248 120.784 112.884 115.176 112.884Z" fill="url(#paint0_linear)"/>
<path d="M131.454 113.458C135.115 113.458 136.906 111.058 136.906 108.292C136.88 105.657 135.037 103.048 131.402 103.048H124.028V119.903H125.327V113.511H129.896L135.686 119.903H137.4L131.454 113.458ZM125.301 112.284V104.248H131.402C134.18 104.248 135.53 106.283 135.504 108.266C135.478 110.64 134.18 112.284 131.272 112.284H125.301Z" fill="url(#paint1_linear)"/>
<path d="M147.762 102.787C142.102 102.787 139.298 106.935 139.298 111.449C139.298 115.911 142.128 120.19 147.762 120.19C153.396 120.19 156.2 115.937 156.226 111.501C156.252 106.935 153.422 102.787 147.762 102.787ZM147.762 118.99C142.985 118.99 140.596 115.285 140.57 111.475C140.544 107.509 142.933 103.987 147.762 103.987C152.591 103.987 154.98 107.588 154.98 111.475C154.98 115.285 152.565 118.99 147.762 118.99Z" fill="url(#paint2_linear)"/>
<path d="M98.8178 47.6272L98.688 46.6879C98.688 46.6879 103.517 48.8535 104.504 49.1927C104.504 49.1927 110.398 40.1126 103.751 29.1538L76.385 45.592L90.7171 22.0827L78.2024 30.7715L85.2646 17.3339L71.9192 25.8139L74.6973 17.9862L56.211 27.7709L70.4392 11.1239C70.4392 11.1239 52.2644 11.6979 44.5791 22.5785C36.8938 33.459 38.0102 47.4967 40.7105 50.4974L44.2935 47.9403C43.93 48.3056 39.4642 59.2122 38.8151 60.282C38.166 61.3518 37.7246 62.3172 37.7246 63.1522C37.7246 63.3348 37.7506 63.5175 37.8025 63.7001C38.2439 65.0048 40.1133 69.6492 42.2683 74.0588C43.3328 76.2767 44.4493 78.4163 45.4878 80.0601C46.0071 80.895 46.5004 81.5734 46.9678 82.0953C47.4351 82.6171 47.8506 82.9824 48.3179 83.0868C48.5256 83.139 48.7593 83.1651 49.0189 83.1651C50.447 83.1651 52.55 82.5389 54.757 81.9126C56.9639 81.2864 59.2228 80.6602 60.8066 80.6602C61.5855 80.6602 62.1567 80.8168 62.5202 81.1038L62.702 80.895C65.0647 82.9042 64.5714 84.1566 64.5714 84.1566C64.5714 84.1566 64.7271 84.5219 61.6894 84.6263C61.5595 84.6523 61.4557 84.6523 61.3518 84.6523C61.3518 84.6523 62.9876 89.8969 63.7924 92.1148C64.5714 94.3326 64.3117 94.5153 64.3117 94.5153L67.9986 94.6457L68.414 91.8539L70.4133 94.6457H74.6973L76.2032 92.3496L77.5014 94.9328L81.4999 94.437C81.4999 94.437 82.0451 87.3138 83.7328 83.6608C83.7328 83.6608 82.3567 83.426 78.8775 84.2349C78.8775 84.2349 79.5526 80.6602 82.0711 80.2427C85.1868 79.747 90.3536 81.8344 92.5346 82.6432H92.5605C93.1837 82.8781 93.5471 83.0346 93.5471 83.0346C93.5471 83.0346 93.625 82.9824 93.8068 82.852C94.4559 82.3823 96.2734 80.9733 98.2726 78.912C101.258 73.8501 105.465 63.8567 106.477 58.5077C106.996 55.8463 98.714 46.714 98.714 46.714L98.8178 47.6272ZM60.6248 66.3355H58.5477L58.5218 68.4229C58.5218 69.8579 57.3534 71.0321 55.9254 71.0321C54.4973 71.0321 53.329 69.8579 53.3549 68.4229V66.3355H51.2778C49.8498 66.3355 48.7074 65.1613 48.7074 63.7262C48.7074 62.2911 49.8498 61.117 51.2778 61.1431H53.3549V59.0557C53.3549 57.6206 54.5233 56.4725 55.9513 56.4725C57.3793 56.4725 58.5218 57.6206 58.5218 59.0818V61.1692H60.5989C62.0269 61.1953 63.1953 62.3433 63.1953 63.7784C63.1953 65.1874 62.0529 66.3355 60.6248 66.3355ZM68.6477 80.5297C68.6477 80.5297 70.5171 74.0588 72.3346 73.9284C74.204 73.7979 76.8783 80.0079 76.8783 80.0079C76.8783 80.0079 72.1528 78.8859 68.6477 80.5297ZM86.433 65.5005C86.433 65.9702 86.1215 66.1528 85.706 65.918L82.6423 64.1176C82.2528 63.8828 82.2528 63.5175 82.6423 63.2827L85.706 61.5084C86.0955 61.2735 86.433 61.4823 86.433 61.9258V65.5005ZM90.3017 70.3537C89.0294 70.3537 88.0168 69.31 88.0168 68.0576C88.0168 66.779 89.0554 65.7614 90.3276 65.7614C91.5999 65.7614 92.6124 66.8051 92.6124 68.0576C92.6124 69.3361 91.5739 70.3798 90.3017 70.3537ZM90.3276 62.0041C89.0554 62.0041 88.0168 60.9604 88.0168 59.6819C88.0168 58.4034 89.0554 57.3858 90.3276 57.3858C91.5999 57.3858 92.6124 58.4295 92.6124 59.708C92.6124 60.9604 91.5999 62.0041 90.3276 62.0041ZM97.987 64.1698L94.9232 65.9441C94.5338 66.1789 94.1962 65.9702 94.1962 65.5005V61.9519C94.1962 61.4823 94.5338 61.2996 94.9232 61.5345L97.987 63.3348C98.4024 63.5436 98.4024 63.935 97.987 64.1698Z" fill="url(#paint3_linear)"/>
<path d="M118.11 39.6951C116.578 29.7017 111.905 20.7781 105.102 13.9418C96.7419 5.54008 85.1619 0.347687 72.4136 0.347687C59.6653 0.347687 48.0854 5.54008 39.725 13.9418C33.0523 20.6476 28.4307 29.3886 26.8209 39.1732L20.3818 44.2612V57.5945L29.8068 63.7262L31.6762 61.2213L31.8579 61.1691C30.2741 56.6812 29.4173 51.8541 29.4173 46.8183C29.4173 34.868 34.2206 24.0918 42.0098 16.2641C49.799 8.43634 60.5481 3.60924 72.4136 3.60924C84.3051 3.60924 95.0282 8.43634 102.817 16.2641C110.607 24.0918 115.176 34.1896 115.851 46.1138C116.293 53.8111 114.371 63.6218 114.371 63.6218C113.333 67.1704 112.009 70.2493 110.555 72.9368C106.53 80.2427 101.312 84.6001 97.0534 87.1833C96.4822 87.0267 95.6514 86.8963 94.6907 87.0267C92.8473 87.2616 86.9015 88.7488 87.5247 92.9236C88.0959 96.7853 96.1187 94.176 98.1699 89.6621C99.7277 88.7488 101.415 87.6008 103.155 86.1657C106.53 83.3738 110.035 79.5121 112.943 74.2414C114.891 70.719 116.552 66.5442 117.721 61.691L123.952 57.6466V44.3134L118.11 39.6951Z" fill="url(#paint4_linear)"/>
<defs>
<linearGradient id="paint0_linear" x1="114.239" y1="-2.15947" x2="114.239" y2="121.018" gradientUnits="userSpaceOnUse">
<stop stop-color="#FFC000"/>
<stop offset="1" stop-color="#FE9600"/>
</linearGradient>
<linearGradient id="paint1_linear" x1="130.697" y1="-2.15947" x2="130.697" y2="121.018" gradientUnits="userSpaceOnUse">
<stop stop-color="#FFC000"/>
<stop offset="1" stop-color="#FE9600"/>
</linearGradient>
<linearGradient id="paint2_linear" x1="147.768" y1="-2.15963" x2="147.768" y2="121.018" gradientUnits="userSpaceOnUse">
<stop stop-color="#FFC000"/>
<stop offset="1" stop-color="#FE9600"/>
</linearGradient>
<linearGradient id="paint3_linear" x1="72.3468" y1="-2.15949" x2="72.3468" y2="121.018" gradientUnits="userSpaceOnUse">
<stop stop-color="#FFC000"/>
<stop offset="1" stop-color="#FE9600"/>
</linearGradient>
<linearGradient id="paint4_linear" x1="72.126" y1="-2.15953" x2="72.126" y2="121.018" gradientUnits="userSpaceOnUse">
<stop stop-color="#FFC000"/>
<stop offset="1" stop-color="#FE9600"/>
</linearGradient>
</defs>
</svg>
