<svg width="275" height="249" viewBox="0 0 275 249" fill="none" xmlns="http://www.w3.org/2000/svg">
    <circle opacity="0.7" cx="154" cy="121" r="121" fill="#030115"/>
    <circle cx="121" cy="128" r="117" stroke="url(#paint0_linear)" stroke-width="8"/>
    <path fill-rule="evenodd" clip-rule="evenodd" d="M153.217 93.0735C153.217 114.101 137.051 131.147 117.108 131.147C97.1663 131.147 81 114.101 81 93.0735C81 72.0461 97.1663 55 117.108 55C137.051 55 153.217 72.0461 153.217 93.0735ZM130.36 93.0649L130.295 92.5205C130.295 92.5205 132.712 93.7758 133.206 93.9724C133.206 93.9724 136.155 88.7091 132.829 82.3569L119.135 91.8852L126.307 78.2581L120.044 83.2946L123.578 75.5055L116.9 80.4209L118.29 75.8836L109.039 81.5553L116.159 71.9059C116.159 71.9059 107.065 72.2386 103.219 78.5455C99.3729 84.8524 99.9316 92.9893 101.283 94.7286L103.076 93.2464C102.983 93.3544 102.357 95.0507 101.722 96.7699L101.722 96.7699C101.112 98.4226 100.494 100.096 100.334 100.4C100.01 101.02 99.7887 101.58 99.7887 102.064C99.7887 102.17 99.8017 102.276 99.8277 102.382C100.049 103.138 100.984 105.83 102.062 108.386C102.595 109.672 103.154 110.912 103.673 111.865C103.933 112.349 104.18 112.742 104.414 113.044C104.648 113.347 104.856 113.559 105.09 113.619C105.194 113.649 105.311 113.664 105.44 113.664C106.109 113.664 107.075 113.346 108.101 113.008L108.312 112.938C109.416 112.575 110.547 112.212 111.339 112.212C111.729 112.212 112.015 112.303 112.197 112.47L112.288 112.349C113.47 113.513 113.223 114.239 113.223 114.239C113.223 114.239 113.301 114.451 111.781 114.511C111.716 114.526 111.664 114.526 111.612 114.526C111.612 114.526 112.43 117.566 112.833 118.852C113.223 120.138 113.093 120.243 113.093 120.243L114.938 120.319L115.146 118.701L116.146 120.319H118.29L119.044 118.988L119.693 120.485L121.694 120.198C121.694 120.198 121.967 116.069 122.812 113.952C122.812 113.952 122.123 113.816 120.382 114.284C120.382 114.284 120.72 112.212 121.98 111.97C123.417 111.706 125.724 112.712 126.932 113.239C127.035 113.284 127.13 113.325 127.216 113.362H127.229C127.541 113.498 127.723 113.589 127.723 113.589C127.723 113.589 127.762 113.559 127.853 113.483C128.177 113.211 129.087 112.394 130.087 111.199C131.581 108.265 133.686 102.472 134.193 99.3718C134.453 97.8291 130.308 92.5356 130.308 92.5356L130.36 93.0649ZM111.248 103.909H110.209L110.196 105.119C110.196 105.951 109.611 106.632 108.896 106.632C108.182 106.632 107.597 105.951 107.61 105.119V103.909H106.571C105.856 103.909 105.285 103.229 105.285 102.397C105.285 101.565 105.856 100.884 106.571 100.899H107.61V99.6894C107.61 98.8576 108.195 98.1921 108.909 98.1921C109.624 98.1921 110.196 98.8576 110.196 99.7046V100.915H111.235C111.95 100.93 112.534 101.595 112.534 102.427C112.534 103.244 111.963 103.909 111.248 103.909ZM115.263 112.137C115.263 112.137 116.198 108.386 117.108 108.31C118.043 108.235 119.381 111.834 119.381 111.834C119.381 111.834 117.017 111.184 115.263 112.137ZM124.163 103.425C124.163 103.697 124.007 103.803 123.799 103.667L122.266 102.624C122.071 102.487 122.071 102.276 122.266 102.14L123.799 101.111C123.994 100.975 124.163 101.096 124.163 101.353V103.425ZM126.099 106.238C125.462 106.238 124.955 105.633 124.955 104.907C124.955 104.166 125.475 103.576 126.112 103.576C126.748 103.576 127.255 104.181 127.255 104.907C127.255 105.648 126.735 106.253 126.099 106.238ZM126.112 101.398C125.475 101.398 124.955 100.794 124.955 100.052C124.955 99.3113 125.475 98.7215 126.112 98.7215C126.748 98.7215 127.255 99.3264 127.255 100.068C127.255 100.794 126.748 101.398 126.112 101.398ZM129.944 102.654L128.411 103.682C128.216 103.818 128.048 103.697 128.048 103.425V101.368C128.048 101.096 128.216 100.99 128.411 101.126L129.944 102.17C130.152 102.291 130.152 102.518 129.944 102.654ZM133.504 73.5349C136.908 77.4975 139.247 82.67 140.014 88.4627L142.937 91.1397V98.8683L139.819 101.213C139.234 104.026 138.403 106.446 137.428 108.487C135.973 111.543 134.219 113.781 132.53 115.399C131.659 116.231 130.815 116.897 130.035 117.426C129.009 120.042 124.994 121.555 124.708 119.316C124.397 116.897 127.372 116.034 128.294 115.898C128.775 115.823 129.191 115.898 129.477 115.989C131.607 114.492 134.219 111.966 136.233 107.731C136.96 106.173 137.623 104.389 138.143 102.332C138.143 102.332 139.104 96.645 138.883 92.1833C138.545 85.2714 136.259 79.4183 132.361 74.881C128.463 70.3437 123.097 67.5456 117.147 67.5456C111.209 67.5456 105.83 70.3437 101.932 74.881C98.0347 79.4183 95.631 85.6647 95.631 92.5916C95.631 95.5107 96.0598 98.3087 96.8524 100.91L96.7614 100.94L95.8259 102.392L91.1096 98.838V91.1095L94.3318 88.1602C95.1373 82.4885 97.45 77.4219 100.789 73.5349C104.973 68.6648 110.767 65.6551 117.147 65.6551C123.526 65.6551 129.321 68.6648 133.504 73.5349Z" fill="url(#paint1_linear)"/>
    <path d="M50.8669 176.845V164.963C50.8669 162.201 53.1055 159.963 55.8669 159.963H92.8959C95.6573 159.963 97.8959 162.201 97.8959 164.963V176.845" stroke="url(#paint2_linear)" stroke-width="4"/>
    <path d="M72.5728 159.661V147.779C72.5728 145.018 74.8113 142.779 77.5728 142.779H158.616C161.377 142.779 163.616 145.018 163.616 147.779V159.661" stroke="url(#paint3_linear)" stroke-width="4"/>
    <path d="M137.087 176.845V164.963C137.087 162.201 139.326 159.963 142.087 159.963H179.116C181.878 159.963 184.116 162.201 184.116 164.963V176.845" stroke="url(#paint4_linear)" stroke-width="4"/>
    <rect x="37" y="177.146" width="29.5438" height="10.8528" rx="5" fill="url(#paint5_linear)"/>
    <rect x="123.22" y="177.146" width="29.5438" height="10.8528" rx="5" fill="url(#paint6_linear)"/>
    <rect x="83.426" y="177.146" width="29.5438" height="10.8528" rx="5" fill="url(#paint7_linear)"/>
    <rect x="169.646" y="177.146" width="29.5438" height="10.8528" rx="5" fill="url(#paint8_linear)"/>
    <path d="M118.396 141.876V131.324" stroke="url(#paint9_linear)" stroke-width="4"/>
    <defs>
        <linearGradient id="paint0_linear" x1="225.042" y1="128.021" x2="23.8334" y2="128.021" gradientUnits="userSpaceOnUse">
            <stop stop-color="#FF7505"/>
            <stop offset="1" stop-color="#F0C146"/>
        </linearGradient>
        <linearGradient id="paint1_linear" x1="148.156" y1="93.0801" x2="88.1123" y2="93.0801" gradientUnits="userSpaceOnUse">
            <stop stop-color="#FF7505"/>
            <stop offset="1" stop-color="#F0C146"/>
        </linearGradient>
        <linearGradient id="paint2_linear" x1="94.6003" y1="168.405" x2="55.4986" y2="168.405" gradientUnits="userSpaceOnUse">
            <stop stop-color="#FF7505"/>
            <stop offset="1" stop-color="#F0C146"/>
        </linearGradient>
        <linearGradient id="paint3_linear" x1="157.236" y1="151.222" x2="81.5391" y2="151.222" gradientUnits="userSpaceOnUse">
            <stop stop-color="#FF7505"/>
            <stop offset="1" stop-color="#F0C146"/>
        </linearGradient>
        <linearGradient id="paint4_linear" x1="180.821" y1="168.405" x2="141.719" y2="168.405" gradientUnits="userSpaceOnUse">
            <stop stop-color="#FF7505"/>
            <stop offset="1" stop-color="#F0C146"/>
        </linearGradient>
        <linearGradient id="paint5_linear" x1="64.4735" y1="182.574" x2="39.9096" y2="182.574" gradientUnits="userSpaceOnUse">
            <stop stop-color="#FF7505"/>
            <stop offset="1" stop-color="#F0C146"/>
        </linearGradient>
        <linearGradient id="paint6_linear" x1="150.693" y1="182.574" x2="126.129" y2="182.574" gradientUnits="userSpaceOnUse">
            <stop stop-color="#FF7505"/>
            <stop offset="1" stop-color="#F0C146"/>
        </linearGradient>
        <linearGradient id="paint7_linear" x1="110.9" y1="182.574" x2="86.3356" y2="182.574" gradientUnits="userSpaceOnUse">
            <stop stop-color="#FF7505"/>
            <stop offset="1" stop-color="#F0C146"/>
        </linearGradient>
        <linearGradient id="paint8_linear" x1="197.119" y1="182.574" x2="172.555" y2="182.574" gradientUnits="userSpaceOnUse">
            <stop stop-color="#FF7505"/>
            <stop offset="1" stop-color="#F0C146"/>
        </linearGradient>
        <linearGradient id="paint9_linear" x1="119.326" y1="136.601" x2="118.495" y2="136.601" gradientUnits="userSpaceOnUse">
            <stop stop-color="#FF7505"/>
            <stop offset="1" stop-color="#F0C146"/>
        </linearGradient>
    </defs>
</svg>
