<svg width="257" height="249" viewBox="0 0 257 249" fill="none" xmlns="http://www.w3.org/2000/svg">
    <circle opacity="0.7" cx="136" cy="121" r="121" fill="#030115"/>
    <circle cx="121" cy="128" r="117" stroke="url(#paint0_linear)" stroke-width="8"/>
    <path fill-rule="evenodd" clip-rule="evenodd" d="M122.902 40.8546C122.303 39.012 119.697 39.012 119.098 40.8546L98.9977 102.717C98.7299 103.541 97.962 104.099 97.0955 104.099H32.0497C30.1123 104.099 29.3067 106.578 30.8742 107.717L83.4973 145.95C84.1983 146.459 84.4916 147.362 84.2239 148.186L64.1236 210.048C63.5249 211.891 65.6339 213.423 67.2013 212.284L119.824 174.051C120.525 173.542 121.475 173.542 122.176 174.051L174.799 212.284C176.366 213.423 178.475 211.891 177.876 210.048L157.776 148.186C157.508 147.362 157.802 146.459 158.503 145.95L211.126 107.717C212.693 106.578 211.888 104.099 209.95 104.099H144.905C144.038 104.099 143.27 103.541 143.002 102.717L122.902 40.8546ZM92.84 113.041H81.08V141.001H87.16V131.921H92.84C96.04 131.921 98.5734 131.107 100.44 129.481C102.333 127.854 103.28 125.521 103.28 122.481C103.28 119.521 102.333 117.214 100.44 115.561C98.5467 113.881 96.0134 113.041 92.84 113.041ZM97.12 122.481C97.12 125.387 95.4 126.841 91.96 126.841H87.16V118.121H91.96C93.56 118.121 94.8134 118.441 95.72 119.081C96.6534 119.721 97.12 120.854 97.12 122.481ZM118.2 113.041H106.08V141.001H112.16V131.521H116.92L121.84 141.001H128.08L122.76 130.761C124.52 130.094 125.88 129.041 126.84 127.601C127.8 126.134 128.28 124.361 128.28 122.281C128.28 119.294 127.387 117.014 125.6 115.441C123.84 113.841 121.373 113.041 118.2 113.041ZM120.76 125.441C119.88 126.107 118.667 126.441 117.12 126.441H112.16V118.121H117.12C118.693 118.121 119.92 118.441 120.8 119.081C121.68 119.694 122.12 120.761 122.12 122.281C122.12 123.721 121.667 124.774 120.76 125.441ZM137.6 139.761C139.893 140.987 142.44 141.601 145.24 141.601C148.04 141.601 150.56 140.987 152.8 139.761C155.067 138.534 156.853 136.827 158.16 134.641C159.467 132.427 160.12 129.894 160.12 127.041C160.12 124.187 159.467 121.654 158.16 119.441C156.853 117.227 155.067 115.507 152.8 114.281C150.56 113.054 148.04 112.441 145.24 112.441C142.44 112.441 139.893 113.054 137.6 114.281C135.333 115.507 133.547 117.227 132.24 119.441C130.933 121.654 130.28 124.187 130.28 127.041C130.28 129.894 130.933 132.427 132.24 134.641C133.547 136.827 135.333 138.534 137.6 139.761ZM149.6 134.921C148.293 135.641 146.84 136.001 145.24 136.001C143.613 136.001 142.133 135.641 140.8 134.921C139.467 134.174 138.413 133.134 137.64 131.801C136.867 130.441 136.48 128.854 136.48 127.041C136.48 125.254 136.867 123.694 137.64 122.361C138.413 121.001 139.453 119.961 140.76 119.241C142.093 118.494 143.587 118.121 145.24 118.121C146.867 118.121 148.333 118.494 149.64 119.241C150.973 119.961 152.013 121.001 152.76 122.361C153.533 123.694 153.92 125.254 153.92 127.041C153.92 128.854 153.533 130.441 152.76 131.801C151.987 133.134 150.933 134.174 149.6 134.921Z" fill="url(#paint1_linear)"/>
    <defs>
        <linearGradient id="paint0_linear" x1="225.042" y1="128.021" x2="23.8334" y2="128.021" gradientUnits="userSpaceOnUse">
            <stop stop-color="#FF7505"/>
            <stop offset="1" stop-color="#F0C146"/>
        </linearGradient>
        <linearGradient id="paint1_linear" x1="199.207" y1="126.089" x2="47.9611" y2="126.089" gradientUnits="userSpaceOnUse">
            <stop stop-color="#FF7505"/>
            <stop offset="1" stop-color="#F0C146"/>
        </linearGradient>
    </defs>
</svg>
