<svg width="259" height="249" viewBox="0 0 259 249" fill="none" xmlns="http://www.w3.org/2000/svg">
    <circle opacity="0.7" cx="138" cy="121" r="121" fill="#030115"/>
    <path d="M71 75.9999C83.3333 75.6665 110.2 78.8981 111 86.4981C112 95.9981 112 98.9985 126.5 104.998C138.1 109.798 138.333 129.665 137 138.998" stroke="url(#paint0_linear)" stroke-width="4"/>
    <circle cx="121" cy="128" r="117" stroke="url(#paint1_linear)" stroke-width="8"/>
    <path d="M74.663 154.821L70.163 195.821C70.1636 198.82 68.163 201.72 78.163 205.32C88.163 208.92 92.663 206.82 93.663 205.32L116.663 179.32H154.163L176.664 203.82C179.164 205.487 185.163 209.32 193.163 205.32C201.163 201.32 201.83 195.32 201.163 192.82C195.563 158.02 193.496 144.987 193.163 142.82C191.33 138.82 184.463 130.321 171.663 128.321C158.863 126.321 150.33 134.154 147.663 138.321H121.663C121.663 138.321 114.663 128.321 101.163 128.321C83.163 127.521 75.9963 145.654 74.663 154.821Z" stroke="url(#paint2_linear)" stroke-width="6"/>
    <circle opacity="0.1" cx="102.664" cy="155.32" r="18.5" fill="#928CE7"/>
    <path fill-rule="evenodd" clip-rule="evenodd" d="M102.164 142.82C100.507 142.82 99.1641 144.163 99.1641 145.82V152.82H93.1641C91.5072 152.82 90.1641 154.163 90.1641 155.82C90.1641 157.477 91.5072 158.82 93.1641 158.82H99.1641V164.82C99.1641 166.477 100.507 167.82 102.164 167.82C103.821 167.82 105.164 166.477 105.164 164.82V158.82H112.164C113.821 158.82 115.164 157.477 115.164 155.82C115.164 154.163 113.821 152.82 112.164 152.82H105.164V145.82C105.164 144.163 103.821 142.82 102.164 142.82Z" fill="url(#paint3_linear)"/>
    <circle opacity="0.1" cx="170.664" cy="155.32" r="18.5" fill="#928CE7"/>
    <circle cx="170.664" cy="145.32" r="4.5" fill="url(#paint4_linear)"/>
    <circle cx="178.669" cy="154.343" r="4.5" transform="rotate(90.0625 178.669 154.343)" fill="url(#paint5_linear)"/>
    <circle cx="170.664" cy="162.32" r="4.5" fill="url(#paint6_linear)"/>
    <circle cx="161.669" cy="154.325" r="4.5" transform="rotate(90.0625 161.669 154.325)" fill="url(#paint7_linear)"/>
    <path d="M86.9876 54.5888L77.4175 39.8373C76.6084 38.8471 76.487 37.3501 72.2143 38.858C67.9416 40.3658 67.022 42.2727 67.0963 43.0377L66.513 57.8249L54.1307 67.9371L40.0943 65.9149C38.8194 66.0387 35.8049 66.3906 34.242 69.8687C32.679 73.3467 34.0768 75.5077 34.9711 76.1534C46.2043 86.1341 50.4013 89.8803 51.0956 90.5058C52.7795 91.3322 57.3389 92.2871 62.1046 89.4958C66.8704 86.7045 67.5758 81.817 67.3328 79.7221L75.9179 72.711C75.9179 72.711 80.9257 74.1253 85.3834 70.4849C91.5426 65.8952 89.0192 57.9751 86.9876 54.5888Z" stroke="url(#paint8_linear)" stroke-width="4"/>
    <circle opacity="0.1" cx="77.6073" cy="61.9738" r="7.88682" transform="rotate(140.763 77.6073 61.9738)" fill="#928CE7"/>
    <path fill-rule="evenodd" clip-rule="evenodd" d="M81.1436 65.9664C81.6907 65.5196 81.772 64.7139 81.3252 64.1668L79.4376 61.8554L81.4188 60.2375C81.9659 59.7907 82.0472 58.985 81.6004 58.4379C81.1536 57.8909 80.3479 57.8095 79.8008 58.2563L77.8197 59.8743L76.2017 57.8931C75.7549 57.346 74.9492 57.2647 74.4022 57.7115C73.8551 58.1583 73.7738 58.964 74.2206 59.5111L75.8385 61.4922L73.5271 63.3798C72.9801 63.8266 72.8987 64.6323 73.3455 65.1794C73.7923 65.7265 74.598 65.8078 75.1451 65.361L77.4565 63.4734L79.3441 65.7848C79.7908 66.3318 80.5965 66.4132 81.1436 65.9664Z" fill="url(#paint9_linear)"/>
    <circle opacity="0.1" cx="55.1537" cy="80.3117" r="7.88682" transform="rotate(140.763 55.1537 80.3117)" fill="#928CE7"/>
    <circle cx="57.8505" cy="83.6143" r="1.91842" transform="rotate(140.763 57.8505 83.6143)" fill="url(#paint10_linear)"/>
    <circle cx="52.7744" cy="82.7931" r="1.91842" transform="rotate(-129.175 52.7744 82.7931)" fill="url(#paint11_linear)"/>
    <circle cx="53.2665" cy="77.9991" r="1.91842" transform="rotate(140.763 53.2665 77.9991)" fill="url(#paint12_linear)"/>
    <circle cx="58.3925" cy="78.215" r="1.91842" transform="rotate(-129.175 58.3925 78.215)" fill="url(#paint13_linear)"/>
    <defs>
        <linearGradient id="paint0_linear" x1="132.89" y1="107.493" x2="77.5546" y2="107.493" gradientUnits="userSpaceOnUse">
            <stop stop-color="#FF7505"/>
            <stop offset="1" stop-color="#F0C146"/>
        </linearGradient>
        <linearGradient id="paint1_linear" x1="225.042" y1="128.021" x2="23.8334" y2="128.021" gradientUnits="userSpaceOnUse">
            <stop stop-color="#FF7505"/>
            <stop offset="1" stop-color="#F0C146"/>
        </linearGradient>
        <linearGradient id="paint2_linear" x1="192.153" y1="167.661" x2="82.9368" y2="167.661" gradientUnits="userSpaceOnUse">
            <stop stop-color="#FF7505"/>
            <stop offset="1" stop-color="#F0C146"/>
        </linearGradient>
        <linearGradient id="paint3_linear" x1="113.412" y1="155.322" x2="92.6262" y2="155.322" gradientUnits="userSpaceOnUse">
            <stop stop-color="#FF7505"/>
            <stop offset="1" stop-color="#F0C146"/>
        </linearGradient>
        <linearGradient id="paint4_linear" x1="174.533" y1="145.321" x2="167.05" y2="145.321" gradientUnits="userSpaceOnUse">
            <stop stop-color="#FF7505"/>
            <stop offset="1" stop-color="#F0C146"/>
        </linearGradient>
        <linearGradient id="paint5_linear" x1="182.538" y1="154.344" x2="175.055" y2="154.344" gradientUnits="userSpaceOnUse">
            <stop stop-color="#FF7505"/>
            <stop offset="1" stop-color="#F0C146"/>
        </linearGradient>
        <linearGradient id="paint6_linear" x1="174.533" y1="162.321" x2="167.05" y2="162.321" gradientUnits="userSpaceOnUse">
            <stop stop-color="#FF7505"/>
            <stop offset="1" stop-color="#F0C146"/>
        </linearGradient>
        <linearGradient id="paint7_linear" x1="165.538" y1="154.326" x2="158.055" y2="154.326" gradientUnits="userSpaceOnUse">
            <stop stop-color="#FF7505"/>
            <stop offset="1" stop-color="#F0C146"/>
        </linearGradient>
        <linearGradient id="paint8_linear" x1="44.7305" y1="82.0313" x2="80.7932" y2="52.5802" gradientUnits="userSpaceOnUse">
            <stop stop-color="#FF7505"/>
            <stop offset="1" stop-color="#F0C146"/>
        </linearGradient>
        <linearGradient id="paint9_linear" x1="74.0582" y1="64.8714" x2="80.9217" y2="59.2662" gradientUnits="userSpaceOnUse">
            <stop stop-color="#FF7505"/>
            <stop offset="1" stop-color="#F0C146"/>
        </linearGradient>
        <linearGradient id="paint10_linear" x1="59.5" y1="83.6146" x2="56.3099" y2="83.6146" gradientUnits="userSpaceOnUse">
            <stop stop-color="#FF7505"/>
            <stop offset="1" stop-color="#F0C146"/>
        </linearGradient>
        <linearGradient id="paint11_linear" x1="54.4239" y1="82.7935" x2="51.2338" y2="82.7935" gradientUnits="userSpaceOnUse">
            <stop stop-color="#FF7505"/>
            <stop offset="1" stop-color="#F0C146"/>
        </linearGradient>
        <linearGradient id="paint12_linear" x1="54.916" y1="77.9994" x2="51.7259" y2="77.9994" gradientUnits="userSpaceOnUse">
            <stop stop-color="#FF7505"/>
            <stop offset="1" stop-color="#F0C146"/>
        </linearGradient>
        <linearGradient id="paint13_linear" x1="60.0421" y1="78.2153" x2="56.852" y2="78.2153" gradientUnits="userSpaceOnUse">
            <stop stop-color="#FF7505"/>
            <stop offset="1" stop-color="#F0C146"/>
        </linearGradient>
    </defs>
</svg>
